solid ascii
  facet normal -6.885104e-018 6.885104e-018 1.000000e+000
    outer loop
      vertex   -8.000000e+000 1.905000e+002 3.000000e+000
      vertex   -5.300000e+001 2.100000e+002 3.000000e+000
      vertex   -1.800000e+001 1.805000e+002 3.000000e+000
    endloop
  endfacet
  facet normal 0.000000e+000 2.277381e-017 1.000000e+000
    outer loop
      vertex   -8.000000e+000 1.905000e+002 3.000000e+000
      vertex   -5.000000e+000 2.100000e+002 3.000000e+000
      vertex   -5.300000e+001 2.100000e+002 3.000000e+000
    endloop
  endfacet
  facet normal 1.480297e-016 -0.000000e+000 1.000000e+000
    outer loop
      vertex   -8.000000e+000 1.905000e+002 3.000000e+000
      vertex   -5.000000e+000 1.775000e+002 3.000000e+000
      vertex   -5.000000e+000 2.100000e+002 3.000000e+000
    endloop
  endfacet
  facet normal 1.480297e-016 0.000000e+000 1.000000e+000
    outer loop
      vertex   -8.000000e+000 1.905000e+002 3.000000e+000
      vertex   -8.000000e+000 1.805000e+002 3.000000e+000
      vertex   -5.000000e+000 1.775000e+002 3.000000e+000
    endloop
  endfacet
  facet normal 0.000000e+000 -1.480297e-016 1.000000e+000
    outer loop
      vertex   -5.000000e+000 1.775000e+002 3.000000e+000
      vertex   -8.000000e+000 1.805000e+002 3.000000e+000
      vertex   -1.800000e+001 1.805000e+002 3.000000e+000
    endloop
  endfacet
  facet normal -1.268826e-017 0.000000e+000 1.000000e+000
    outer loop
      vertex   -5.300000e+001 1.775000e+002 3.000000e+000
      vertex   -1.800000e+001 1.805000e+002 3.000000e+000
      vertex   -5.300000e+001 1.805000e+002 3.000000e+000
    endloop
  endfacet
  facet normal 0.000000e+000 -0.000000e+000 1.000000e+000
    outer loop
      vertex   -1.010000e+002 1.805000e+002 3.000000e+000
      vertex   -5.300000e+001 1.805000e+002 3.000000e+000
      vertex   -1.010000e+002 2.100000e+002 3.000000e+000
    endloop
  endfacet
  facet normal 0.000000e+000 -0.000000e+000 1.000000e+000
    outer loop
      vertex   -1.490000e+002 2.100000e+002 3.000000e+000
      vertex   -1.010000e+002 2.100000e+002 3.000000e+000
      vertex   -1.490000e+002 2.295000e+002 3.000000e+000
    endloop
  endfacet
  facet normal 0.000000e+000 -0.000000e+000 1.000000e+000
    outer loop
      vertex   -1.970000e+002 2.295000e+002 3.000000e+000
      vertex   -1.490000e+002 2.295000e+002 3.000000e+000
      vertex   -1.970000e+002 2.425000e+002 3.000000e+000
    endloop
  endfacet
  facet normal 0.000000e+000 1.480297e-016 1.000000e+000
    outer loop
      vertex   -2.320000e+002 2.395000e+002 3.000000e+000
      vertex   -1.970000e+002 2.425000e+002 3.000000e+000
      vertex   -2.450000e+002 2.425000e+002 3.000000e+000
    endloop
  endfacet
  facet normal -1.480297e-016 0.000000e+000 1.000000e+000
    outer loop
      vertex   -2.420000e+002 2.395000e+002 3.000000e+000
      vertex   -2.450000e+002 2.425000e+002 3.000000e+000
      vertex   -2.420000e+002 2.295000e+002 3.000000e+000
    endloop
  endfacet
  facet normal -0.000000e+000 1.480297e-016 1.000000e+000
    outer loop
      vertex   -2.420000e+002 2.395000e+002 3.000000e+000
      vertex   -2.320000e+002 2.395000e+002 3.000000e+000
      vertex   -2.450000e+002 2.425000e+002 3.000000e+000
    endloop
  endfacet
  facet normal 6.885104e-018 6.885104e-018 1.000000e+000
    outer loop
      vertex   -2.320000e+002 1.805000e+002 3.000000e+000
      vertex   -1.970000e+002 2.100000e+002 3.000000e+000
      vertex   -2.420000e+002 1.905000e+002 3.000000e+000
    endloop
  endfacet
  facet normal 1.268826e-017 -0.000000e+000 1.000000e+000
    outer loop
      vertex   -2.320000e+002 1.805000e+002 3.000000e+000
      vertex   -1.970000e+002 1.805000e+002 3.000000e+000
      vertex   -1.970000e+002 2.100000e+002 3.000000e+000
    endloop
  endfacet
  facet normal 1.268826e-017 -0.000000e+000 1.000000e+000
    outer loop
      vertex   -2.320000e+002 1.805000e+002 3.000000e+000
      vertex   -1.970000e+002 1.775000e+002 3.000000e+000
      vertex   -1.970000e+002 1.805000e+002 3.000000e+000
    endloop
  endfacet
  facet normal 0.000000e+000 -1.480297e-016 1.000000e+000
    outer loop
      vertex   -2.320000e+002 1.805000e+002 3.000000e+000
      vertex   -2.450000e+002 1.775000e+002 3.000000e+000
      vertex   -1.970000e+002 1.775000e+002 3.000000e+000
    endloop
  endfacet
  facet normal 0.000000e+000 -1.480297e-016 1.000000e+000
    outer loop
      vertex   -2.320000e+002 1.805000e+002 3.000000e+000
      vertex   -2.420000e+002 1.805000e+002 3.000000e+000
      vertex   -2.450000e+002 1.775000e+002 3.000000e+000
    endloop
  endfacet
  facet normal -1.480297e-016 0.000000e+000 1.000000e+000
    outer loop
      vertex   -2.450000e+002 1.775000e+002 3.000000e+000
      vertex   -2.420000e+002 1.805000e+002 3.000000e+000
      vertex   -2.420000e+002 1.905000e+002 3.000000e+000
    endloop
  endfacet
  facet normal 0.000000e+000 2.277381e-017 1.000000e+000
    outer loop
      vertex   -2.450000e+002 2.100000e+002 3.000000e+000
      vertex   -2.420000e+002 1.905000e+002 3.000000e+000
      vertex   -1.970000e+002 2.100000e+002 3.000000e+000
    endloop
  endfacet
  facet normal 9.868649e-018 -0.000000e+000 1.000000e+000
    outer loop
      vertex   -2.420000e+002 2.295000e+002 3.000000e+000
      vertex   -1.970000e+002 2.100000e+002 3.000000e+000
      vertex   -1.970000e+002 2.295000e+002 3.000000e+000
    endloop
  endfacet
  facet normal 1.268826e-017 -0.000000e+000 1.000000e+000
    outer loop
      vertex   -2.320000e+002 2.395000e+002 3.000000e+000
      vertex   -1.970000e+002 2.295000e+002 3.000000e+000
      vertex   -1.970000e+002 2.425000e+002 3.000000e+000
    endloop
  endfacet
  facet normal 9.868649e-018 -9.868649e-018 1.000000e+000
    outer loop
      vertex   -2.320000e+002 2.395000e+002 3.000000e+000
      vertex   -2.420000e+002 2.295000e+002 3.000000e+000
      vertex   -1.970000e+002 2.295000e+002 3.000000e+000
    endloop
  endfacet
  facet normal 0.000000e+000 -2.277381e-017 1.000000e+000
    outer loop
      vertex   -5.300000e+001 2.100000e+002 3.000000e+000
      vertex   -5.000000e+000 2.100000e+002 3.000000e+000
      vertex   -8.000000e+000 2.295000e+002 3.000000e+000
    endloop
  endfacet
  facet normal -9.868649e-018 -9.868649e-018 1.000000e+000
    outer loop
      vertex   -5.300000e+001 2.295000e+002 3.000000e+000
      vertex   -8.000000e+000 2.295000e+002 3.000000e+000
      vertex   -1.800000e+001 2.395000e+002 3.000000e+000
    endloop
  endfacet
  facet normal 0.000000e+000 1.480297e-016 1.000000e+000
    outer loop
      vertex   -5.300000e+001 2.425000e+002 3.000000e+000
      vertex   -1.800000e+001 2.395000e+002 3.000000e+000
      vertex   -5.000000e+000 2.425000e+002 3.000000e+000
    endloop
  endfacet
  facet normal -1.268826e-017 0.000000e+000 1.000000e+000
    outer loop
      vertex   -5.300000e+001 2.425000e+002 3.000000e+000
      vertex   -5.300000e+001 2.295000e+002 3.000000e+000
      vertex   -1.800000e+001 2.395000e+002 3.000000e+000
    endloop
  endfacet
  facet normal 0.000000e+000 0.000000e+000 1.000000e+000
    outer loop
      vertex   -5.300000e+001 2.425000e+002 3.000000e+000
      vertex   -1.010000e+002 2.425000e+002 3.000000e+000
      vertex   -5.300000e+001 2.295000e+002 3.000000e+000
    endloop
  endfacet
  facet normal 0.000000e+000 0.000000e+000 1.000000e+000
    outer loop
      vertex   -5.300000e+001 2.295000e+002 3.000000e+000
      vertex   -1.010000e+002 2.425000e+002 3.000000e+000
      vertex   -1.010000e+002 2.295000e+002 3.000000e+000
    endloop
  endfacet
  facet normal 0.000000e+000 0.000000e+000 1.000000e+000
    outer loop
      vertex   -5.300000e+001 2.100000e+002 3.000000e+000
      vertex   -1.010000e+002 2.295000e+002 3.000000e+000
      vertex   -1.010000e+002 2.100000e+002 3.000000e+000
    endloop
  endfacet
  facet normal 0.000000e+000 -0.000000e+000 1.000000e+000
    outer loop
      vertex   -5.300000e+001 1.805000e+002 3.000000e+000
      vertex   -5.300000e+001 2.100000e+002 3.000000e+000
      vertex   -1.010000e+002 2.100000e+002 3.000000e+000
    endloop
  endfacet
  facet normal -1.268826e-017 0.000000e+000 1.000000e+000
    outer loop
      vertex   -5.300000e+001 1.805000e+002 3.000000e+000
      vertex   -1.800000e+001 1.805000e+002 3.000000e+000
      vertex   -5.300000e+001 2.100000e+002 3.000000e+000
    endloop
  endfacet
  facet normal 0.000000e+000 0.000000e+000 1.000000e+000
    outer loop
      vertex   -1.010000e+002 2.425000e+002 3.000000e+000
      vertex   -1.490000e+002 2.425000e+002 3.000000e+000
      vertex   -1.010000e+002 2.295000e+002 3.000000e+000
    endloop
  endfacet
  facet normal 0.000000e+000 0.000000e+000 1.000000e+000
    outer loop
      vertex   -1.010000e+002 2.295000e+002 3.000000e+000
      vertex   -1.490000e+002 2.425000e+002 3.000000e+000
      vertex   -1.490000e+002 2.295000e+002 3.000000e+000
    endloop
  endfacet
  facet normal 0.000000e+000 -0.000000e+000 1.000000e+000
    outer loop
      vertex   -1.010000e+002 2.100000e+002 3.000000e+000
      vertex   -1.010000e+002 2.295000e+002 3.000000e+000
      vertex   -1.490000e+002 2.295000e+002 3.000000e+000
    endloop
  endfacet
  facet normal 0.000000e+000 0.000000e+000 1.000000e+000
    outer loop
      vertex   -1.490000e+002 2.425000e+002 3.000000e+000
      vertex   -1.970000e+002 2.425000e+002 3.000000e+000
      vertex   -1.490000e+002 2.295000e+002 3.000000e+000
    endloop
  endfacet
  facet normal -1.480297e-016 0.000000e+000 1.000000e+000
    outer loop
      vertex   -2.450000e+002 2.425000e+002 3.000000e+000
      vertex   -2.450000e+002 2.100000e+002 3.000000e+000
      vertex   -2.420000e+002 2.295000e+002 3.000000e+000
    endloop
  endfacet
  facet normal 0.000000e+000 -2.277381e-017 1.000000e+000
    outer loop
      vertex   -2.420000e+002 2.295000e+002 3.000000e+000
      vertex   -2.450000e+002 2.100000e+002 3.000000e+000
      vertex   -1.970000e+002 2.100000e+002 3.000000e+000
    endloop
  endfacet
  facet normal -1.480297e-016 0.000000e+000 1.000000e+000
    outer loop
      vertex   -2.450000e+002 2.100000e+002 3.000000e+000
      vertex   -2.450000e+002 1.775000e+002 3.000000e+000
      vertex   -2.420000e+002 1.905000e+002 3.000000e+000
    endloop
  endfacet
  facet normal 0.000000e+000 -0.000000e+000 1.000000e+000
    outer loop
      vertex   -1.970000e+002 1.775000e+002 3.000000e+000
      vertex   -1.490000e+002 1.775000e+002 3.000000e+000
      vertex   -1.970000e+002 1.805000e+002 3.000000e+000
    endloop
  endfacet
  facet normal -0.000000e+000 0.000000e+000 1.000000e+000
    outer loop
      vertex   -1.970000e+002 1.805000e+002 3.000000e+000
      vertex   -1.490000e+002 1.775000e+002 3.000000e+000
      vertex   -1.490000e+002 1.805000e+002 3.000000e+000
    endloop
  endfacet
  facet normal -0.000000e+000 0.000000e+000 1.000000e+000
    outer loop
      vertex   -1.970000e+002 2.100000e+002 3.000000e+000
      vertex   -1.490000e+002 1.805000e+002 3.000000e+000
      vertex   -1.490000e+002 2.100000e+002 3.000000e+000
    endloop
  endfacet
  facet normal -0.000000e+000 0.000000e+000 1.000000e+000
    outer loop
      vertex   -1.970000e+002 2.295000e+002 3.000000e+000
      vertex   -1.490000e+002 2.100000e+002 3.000000e+000
      vertex   -1.490000e+002 2.295000e+002 3.000000e+000
    endloop
  endfacet
  facet normal -0.000000e+000 0.000000e+000 1.000000e+000
    outer loop
      vertex   -1.970000e+002 2.295000e+002 3.000000e+000
      vertex   -1.970000e+002 2.100000e+002 3.000000e+000
      vertex   -1.490000e+002 2.100000e+002 3.000000e+000
    endloop
  endfacet
  facet normal 0.000000e+000 -0.000000e+000 1.000000e+000
    outer loop
      vertex   -1.490000e+002 1.775000e+002 3.000000e+000
      vertex   -1.010000e+002 1.775000e+002 3.000000e+000
      vertex   -1.490000e+002 1.805000e+002 3.000000e+000
    endloop
  endfacet
  facet normal -0.000000e+000 0.000000e+000 1.000000e+000
    outer loop
      vertex   -1.490000e+002 1.805000e+002 3.000000e+000
      vertex   -1.010000e+002 1.775000e+002 3.000000e+000
      vertex   -1.010000e+002 1.805000e+002 3.000000e+000
    endloop
  endfacet
  facet normal -0.000000e+000 0.000000e+000 1.000000e+000
    outer loop
      vertex   -1.490000e+002 2.100000e+002 3.000000e+000
      vertex   -1.010000e+002 1.805000e+002 3.000000e+000
      vertex   -1.010000e+002 2.100000e+002 3.000000e+000
    endloop
  endfacet
  facet normal -0.000000e+000 0.000000e+000 1.000000e+000
    outer loop
      vertex   -1.490000e+002 2.100000e+002 3.000000e+000
      vertex   -1.490000e+002 1.805000e+002 3.000000e+000
      vertex   -1.010000e+002 1.805000e+002 3.000000e+000
    endloop
  endfacet
  facet normal 0.000000e+000 -0.000000e+000 1.000000e+000
    outer loop
      vertex   -1.010000e+002 1.775000e+002 3.000000e+000
      vertex   -5.300000e+001 1.775000e+002 3.000000e+000
      vertex   -1.010000e+002 1.805000e+002 3.000000e+000
    endloop
  endfacet
  facet normal -0.000000e+000 0.000000e+000 1.000000e+000
    outer loop
      vertex   -1.010000e+002 1.805000e+002 3.000000e+000
      vertex   -5.300000e+001 1.775000e+002 3.000000e+000
      vertex   -5.300000e+001 1.805000e+002 3.000000e+000
    endloop
  endfacet
  facet normal 0.000000e+000 -1.480297e-016 1.000000e+000
    outer loop
      vertex   -5.300000e+001 1.775000e+002 3.000000e+000
      vertex   -5.000000e+000 1.775000e+002 3.000000e+000
      vertex   -1.800000e+001 1.805000e+002 3.000000e+000
    endloop
  endfacet
  facet normal -9.868649e-018 0.000000e+000 1.000000e+000
    outer loop
      vertex   -5.300000e+001 2.100000e+002 3.000000e+000
      vertex   -8.000000e+000 2.295000e+002 3.000000e+000
      vertex   -5.300000e+001 2.295000e+002 3.000000e+000
    endloop
  endfacet
  facet normal -0.000000e+000 0.000000e+000 1.000000e+000
    outer loop
      vertex   -1.010000e+002 2.295000e+002 3.000000e+000
      vertex   -5.300000e+001 2.100000e+002 3.000000e+000
      vertex   -5.300000e+001 2.295000e+002 3.000000e+000
    endloop
  endfacet
  facet normal -0.000000e+000 1.480297e-016 1.000000e+000
    outer loop
      vertex   -5.000000e+000 2.425000e+002 3.000000e+000
      vertex   -1.800000e+001 2.395000e+002 3.000000e+000
      vertex   -8.000000e+000 2.395000e+002 3.000000e+000
    endloop
  endfacet
  facet normal 1.480297e-016 0.000000e+000 1.000000e+000
    outer loop
      vertex   -8.000000e+000 2.295000e+002 3.000000e+000
      vertex   -5.000000e+000 2.425000e+002 3.000000e+000
      vertex   -8.000000e+000 2.395000e+002 3.000000e+000
    endloop
  endfacet
  facet normal 1.480297e-016 -0.000000e+000 1.000000e+000
    outer loop
      vertex   -8.000000e+000 2.295000e+002 3.000000e+000
      vertex   -5.000000e+000 2.100000e+002 3.000000e+000
      vertex   -5.000000e+000 2.425000e+002 3.000000e+000
    endloop
  endfacet
  facet normal 0.000000e+000 0.000000e+000 1.000000e+000
    outer loop
      vertex   -1.490000e+002 1.805000e+002 3.000000e+000
      vertex   -1.970000e+002 2.100000e+002 3.000000e+000
      vertex   -1.970000e+002 1.805000e+002 3.000000e+000
    endloop
  endfacet
  facet normal 0.000000e+000 -0.000000e+000 -1.000000e+000
    outer loop
      vertex   -5.300000e+001 2.425000e+002 0.000000e+000
      vertex   -5.000000e+000 2.425000e+002 0.000000e+000
      vertex   -5.300000e+001 2.100000e+002 0.000000e+000
    endloop
  endfacet
  facet normal 0.000000e+000 -0.000000e+000 -1.000000e+000
    outer loop
      vertex   -1.010000e+002 2.100000e+002 0.000000e+000
      vertex   -5.300000e+001 2.100000e+002 0.000000e+000
      vertex   -1.010000e+002 1.775000e+002 0.000000e+000
    endloop
  endfacet
  facet normal 0.000000e+000 0.000000e+000 -1.000000e+000
    outer loop
      vertex   -1.490000e+002 1.775000e+002 0.000000e+000
      vertex   -1.010000e+002 2.100000e+002 0.000000e+000
      vertex   -1.010000e+002 1.775000e+002 0.000000e+000
    endloop
  endfacet
  facet normal 0.000000e+000 0.000000e+000 -1.000000e+000
    outer loop
      vertex   -1.490000e+002 1.775000e+002 0.000000e+000
      vertex   -1.490000e+002 2.100000e+002 0.000000e+000
      vertex   -1.010000e+002 2.100000e+002 0.000000e+000
    endloop
  endfacet
  facet normal 0.000000e+000 0.000000e+000 -1.000000e+000
    outer loop
      vertex   -1.490000e+002 1.775000e+002 0.000000e+000
      vertex   -1.970000e+002 1.775000e+002 0.000000e+000
      vertex   -1.490000e+002 2.100000e+002 0.000000e+000
    endloop
  endfacet
  facet normal -0.000000e+000 0.000000e+000 -1.000000e+000
    outer loop
      vertex   -1.490000e+002 2.100000e+002 0.000000e+000
      vertex   -1.970000e+002 1.775000e+002 0.000000e+000
      vertex   -1.970000e+002 2.100000e+002 0.000000e+000
    endloop
  endfacet
  facet normal -0.000000e+000 0.000000e+000 -1.000000e+000
    outer loop
      vertex   -1.490000e+002 2.425000e+002 0.000000e+000
      vertex   -1.970000e+002 2.100000e+002 0.000000e+000
      vertex   -1.970000e+002 2.425000e+002 0.000000e+000
    endloop
  endfacet
  facet normal -0.000000e+000 -0.000000e+000 -1.000000e+000
    outer loop
      vertex   -1.490000e+002 2.425000e+002 0.000000e+000
      vertex   -1.490000e+002 2.100000e+002 0.000000e+000
      vertex   -1.970000e+002 2.100000e+002 0.000000e+000
    endloop
  endfacet
  facet normal 0.000000e+000 -0.000000e+000 -1.000000e+000
    outer loop
      vertex   -1.490000e+002 2.425000e+002 0.000000e+000
      vertex   -1.010000e+002 2.425000e+002 0.000000e+000
      vertex   -1.490000e+002 2.100000e+002 0.000000e+000
    endloop
  endfacet
  facet normal 0.000000e+000 0.000000e+000 -1.000000e+000
    outer loop
      vertex   -1.490000e+002 2.100000e+002 0.000000e+000
      vertex   -1.010000e+002 2.425000e+002 0.000000e+000
      vertex   -1.010000e+002 2.100000e+002 0.000000e+000
    endloop
  endfacet
  facet normal 0.000000e+000 0.000000e+000 -1.000000e+000
    outer loop
      vertex   -1.010000e+002 2.100000e+002 0.000000e+000
      vertex   -1.010000e+002 2.425000e+002 0.000000e+000
      vertex   -5.300000e+001 2.425000e+002 0.000000e+000
    endloop
  endfacet
  facet normal 0.000000e+000 0.000000e+000 -1.000000e+000
    outer loop
      vertex   -5.300000e+001 2.100000e+002 0.000000e+000
      vertex   -1.010000e+002 2.100000e+002 0.000000e+000
      vertex   -5.300000e+001 2.425000e+002 0.000000e+000
    endloop
  endfacet
  facet normal 0.000000e+000 0.000000e+000 -1.000000e+000
    outer loop
      vertex   -5.000000e+000 1.775000e+002 0.000000e+000
      vertex   -5.300000e+001 1.775000e+002 0.000000e+000
      vertex   -5.000000e+000 2.100000e+002 0.000000e+000
    endloop
  endfacet
  facet normal -0.000000e+000 0.000000e+000 -1.000000e+000
    outer loop
      vertex   -5.000000e+000 2.100000e+002 0.000000e+000
      vertex   -5.300000e+001 1.775000e+002 0.000000e+000
      vertex   -5.300000e+001 2.100000e+002 0.000000e+000
    endloop
  endfacet
  facet normal -0.000000e+000 -0.000000e+000 -1.000000e+000
    outer loop
      vertex   -5.000000e+000 2.425000e+002 0.000000e+000
      vertex   -5.000000e+000 2.100000e+002 0.000000e+000
      vertex   -5.300000e+001 2.100000e+002 0.000000e+000
    endloop
  endfacet
  facet normal 0.000000e+000 0.000000e+000 -1.000000e+000
    outer loop
      vertex   -5.300000e+001 1.775000e+002 0.000000e+000
      vertex   -1.010000e+002 1.775000e+002 0.000000e+000
      vertex   -5.300000e+001 2.100000e+002 0.000000e+000
    endloop
  endfacet
  facet normal 0.000000e+000 0.000000e+000 -1.000000e+000
    outer loop
      vertex   -1.970000e+002 1.775000e+002 0.000000e+000
      vertex   -2.450000e+002 1.775000e+002 0.000000e+000
      vertex   -1.970000e+002 2.100000e+002 0.000000e+000
    endloop
  endfacet
  facet normal -0.000000e+000 0.000000e+000 -1.000000e+000
    outer loop
      vertex   -1.970000e+002 2.100000e+002 0.000000e+000
      vertex   -2.450000e+002 1.775000e+002 0.000000e+000
      vertex   -2.450000e+002 2.100000e+002 0.000000e+000
    endloop
  endfacet
  facet normal -0.000000e+000 0.000000e+000 -1.000000e+000
    outer loop
      vertex   -1.970000e+002 2.425000e+002 0.000000e+000
      vertex   -2.450000e+002 2.100000e+002 0.000000e+000
      vertex   -2.450000e+002 2.425000e+002 0.000000e+000
    endloop
  endfacet
  facet normal -0.000000e+000 -0.000000e+000 -1.000000e+000
    outer loop
      vertex   -1.970000e+002 2.425000e+002 0.000000e+000
      vertex   -1.970000e+002 2.100000e+002 0.000000e+000
      vertex   -2.450000e+002 2.100000e+002 0.000000e+000
    endloop
  endfacet
  facet normal 0.000000e+000 -1.000000e+000 0.000000e+000
    outer loop
      vertex   -2.450000e+002 1.775000e+002 3.000000e+000
      vertex   -2.450000e+002 1.775000e+002 0.000000e+000
      vertex   -1.970000e+002 1.775000e+002 3.000000e+000
    endloop
  endfacet
  facet normal 0.000000e+000 -1.000000e+000 -0.000000e+000
    outer loop
      vertex   -1.970000e+002 1.775000e+002 3.000000e+000
      vertex   -2.450000e+002 1.775000e+002 0.000000e+000
      vertex   -1.970000e+002 1.775000e+002 0.000000e+000
    endloop
  endfacet
  facet normal 0.000000e+000 -1.000000e+000 -0.000000e+000
    outer loop
      vertex   -1.490000e+002 1.775000e+002 3.000000e+000
      vertex   -1.970000e+002 1.775000e+002 0.000000e+000
      vertex   -1.490000e+002 1.775000e+002 0.000000e+000
    endloop
  endfacet
  facet normal 0.000000e+000 -1.000000e+000 -0.000000e+000
    outer loop
      vertex   -1.010000e+002 1.775000e+002 3.000000e+000
      vertex   -1.490000e+002 1.775000e+002 0.000000e+000
      vertex   -1.010000e+002 1.775000e+002 0.000000e+000
    endloop
  endfacet
  facet normal 0.000000e+000 -1.000000e+000 -0.000000e+000
    outer loop
      vertex   -5.300000e+001 1.775000e+002 3.000000e+000
      vertex   -1.010000e+002 1.775000e+002 0.000000e+000
      vertex   -5.300000e+001 1.775000e+002 0.000000e+000
    endloop
  endfacet
  facet normal 0.000000e+000 -1.000000e+000 -0.000000e+000
    outer loop
      vertex   -5.000000e+000 1.775000e+002 3.000000e+000
      vertex   -5.300000e+001 1.775000e+002 0.000000e+000
      vertex   -5.000000e+000 1.775000e+002 0.000000e+000
    endloop
  endfacet
  facet normal -0.000000e+000 -1.000000e+000 -0.000000e+000
    outer loop
      vertex   -5.000000e+000 1.775000e+002 3.000000e+000
      vertex   -5.300000e+001 1.775000e+002 3.000000e+000
      vertex   -5.300000e+001 1.775000e+002 0.000000e+000
    endloop
  endfacet
  facet normal 0.000000e+000 -1.000000e+000 0.000000e+000
    outer loop
      vertex   -1.970000e+002 1.775000e+002 3.000000e+000
      vertex   -1.970000e+002 1.775000e+002 0.000000e+000
      vertex   -1.490000e+002 1.775000e+002 3.000000e+000
    endloop
  endfacet
  facet normal 0.000000e+000 -1.000000e+000 0.000000e+000
    outer loop
      vertex   -1.490000e+002 1.775000e+002 3.000000e+000
      vertex   -1.490000e+002 1.775000e+002 0.000000e+000
      vertex   -1.010000e+002 1.775000e+002 3.000000e+000
    endloop
  endfacet
  facet normal 0.000000e+000 -1.000000e+000 0.000000e+000
    outer loop
      vertex   -1.010000e+002 1.775000e+002 3.000000e+000
      vertex   -1.010000e+002 1.775000e+002 0.000000e+000
      vertex   -5.300000e+001 1.775000e+002 3.000000e+000
    endloop
  endfacet
  facet normal -1.000000e+000 -0.000000e+000 -0.000000e+000
    outer loop
      vertex   -2.450000e+002 2.425000e+002 3.000000e+000
      vertex   -2.450000e+002 2.425000e+002 0.000000e+000
      vertex   -2.450000e+002 2.100000e+002 3.000000e+000
    endloop
  endfacet
  facet normal -1.000000e+000 -0.000000e+000 -0.000000e+000
    outer loop
      vertex   -2.450000e+002 2.100000e+002 3.000000e+000
      vertex   -2.450000e+002 2.425000e+002 0.000000e+000
      vertex   -2.450000e+002 2.100000e+002 0.000000e+000
    endloop
  endfacet
  facet normal -1.000000e+000 -0.000000e+000 -0.000000e+000
    outer loop
      vertex   -2.450000e+002 1.775000e+002 3.000000e+000
      vertex   -2.450000e+002 2.100000e+002 0.000000e+000
      vertex   -2.450000e+002 1.775000e+002 0.000000e+000
    endloop
  endfacet
  facet normal -1.000000e+000 0.000000e+000 0.000000e+000
    outer loop
      vertex   -2.450000e+002 1.775000e+002 3.000000e+000
      vertex   -2.450000e+002 2.100000e+002 3.000000e+000
      vertex   -2.450000e+002 2.100000e+002 0.000000e+000
    endloop
  endfacet
  facet normal 0.000000e+000 1.000000e+000 0.000000e+000
    outer loop
      vertex   -5.000000e+000 2.425000e+002 3.000000e+000
      vertex   -5.000000e+000 2.425000e+002 0.000000e+000
      vertex   -5.300000e+001 2.425000e+002 3.000000e+000
    endloop
  endfacet
  facet normal 0.000000e+000 1.000000e+000 0.000000e+000
    outer loop
      vertex   -5.300000e+001 2.425000e+002 3.000000e+000
      vertex   -5.000000e+000 2.425000e+002 0.000000e+000
      vertex   -5.300000e+001 2.425000e+002 0.000000e+000
    endloop
  endfacet
  facet normal 0.000000e+000 1.000000e+000 0.000000e+000
    outer loop
      vertex   -1.010000e+002 2.425000e+002 3.000000e+000
      vertex   -5.300000e+001 2.425000e+002 0.000000e+000
      vertex   -1.010000e+002 2.425000e+002 0.000000e+000
    endloop
  endfacet
  facet normal 0.000000e+000 1.000000e+000 0.000000e+000
    outer loop
      vertex   -1.490000e+002 2.425000e+002 3.000000e+000
      vertex   -1.010000e+002 2.425000e+002 0.000000e+000
      vertex   -1.490000e+002 2.425000e+002 0.000000e+000
    endloop
  endfacet
  facet normal 0.000000e+000 1.000000e+000 0.000000e+000
    outer loop
      vertex   -1.970000e+002 2.425000e+002 3.000000e+000
      vertex   -1.490000e+002 2.425000e+002 0.000000e+000
      vertex   -1.970000e+002 2.425000e+002 0.000000e+000
    endloop
  endfacet
  facet normal 0.000000e+000 1.000000e+000 0.000000e+000
    outer loop
      vertex   -2.450000e+002 2.425000e+002 3.000000e+000
      vertex   -1.970000e+002 2.425000e+002 0.000000e+000
      vertex   -2.450000e+002 2.425000e+002 0.000000e+000
    endloop
  endfacet
  facet normal -0.000000e+000 1.000000e+000 0.000000e+000
    outer loop
      vertex   -2.450000e+002 2.425000e+002 3.000000e+000
      vertex   -1.970000e+002 2.425000e+002 3.000000e+000
      vertex   -1.970000e+002 2.425000e+002 0.000000e+000
    endloop
  endfacet
  facet normal 0.000000e+000 1.000000e+000 0.000000e+000
    outer loop
      vertex   -5.300000e+001 2.425000e+002 3.000000e+000
      vertex   -5.300000e+001 2.425000e+002 0.000000e+000
      vertex   -1.010000e+002 2.425000e+002 3.000000e+000
    endloop
  endfacet
  facet normal 0.000000e+000 1.000000e+000 0.000000e+000
    outer loop
      vertex   -1.010000e+002 2.425000e+002 3.000000e+000
      vertex   -1.010000e+002 2.425000e+002 0.000000e+000
      vertex   -1.490000e+002 2.425000e+002 3.000000e+000
    endloop
  endfacet
  facet normal 0.000000e+000 1.000000e+000 0.000000e+000
    outer loop
      vertex   -1.490000e+002 2.425000e+002 3.000000e+000
      vertex   -1.490000e+002 2.425000e+002 0.000000e+000
      vertex   -1.970000e+002 2.425000e+002 3.000000e+000
    endloop
  endfacet
  facet normal 1.000000e+000 -0.000000e+000 0.000000e+000
    outer loop
      vertex   -5.000000e+000 1.775000e+002 3.000000e+000
      vertex   -5.000000e+000 1.775000e+002 0.000000e+000
      vertex   -5.000000e+000 2.100000e+002 3.000000e+000
    endloop
  endfacet
  facet normal 1.000000e+000 -0.000000e+000 0.000000e+000
    outer loop
      vertex   -5.000000e+000 2.100000e+002 3.000000e+000
      vertex   -5.000000e+000 1.775000e+002 0.000000e+000
      vertex   -5.000000e+000 2.100000e+002 0.000000e+000
    endloop
  endfacet
  facet normal 1.000000e+000 -0.000000e+000 0.000000e+000
    outer loop
      vertex   -5.000000e+000 2.425000e+002 3.000000e+000
      vertex   -5.000000e+000 2.100000e+002 0.000000e+000
      vertex   -5.000000e+000 2.425000e+002 0.000000e+000
    endloop
  endfacet
  facet normal 1.000000e+000 0.000000e+000 0.000000e+000
    outer loop
      vertex   -5.000000e+000 2.425000e+002 3.000000e+000
      vertex   -5.000000e+000 2.100000e+002 3.000000e+000
      vertex   -5.000000e+000 2.100000e+002 0.000000e+000
    endloop
  endfacet
  facet normal 7.071068e-001 7.071068e-001 0.000000e+000
    outer loop
      vertex   -2.320000e+002 1.805000e+002 6.000000e+000
      vertex   -2.320000e+002 1.805000e+002 3.000000e+000
      vertex   -2.420000e+002 1.905000e+002 6.000000e+000
    endloop
  endfacet
  facet normal 7.071068e-001 7.071068e-001 0.000000e+000
    outer loop
      vertex   -2.420000e+002 1.905000e+002 6.000000e+000
      vertex   -2.320000e+002 1.805000e+002 3.000000e+000
      vertex   -2.420000e+002 1.905000e+002 3.000000e+000
    endloop
  endfacet
  facet normal 0.000000e+000 0.000000e+000 1.000000e+000
    outer loop
      vertex   -2.320000e+002 1.805000e+002 6.000000e+000
      vertex   -2.420000e+002 1.905000e+002 6.000000e+000
      vertex   -2.420000e+002 1.805000e+002 6.000000e+000
    endloop
  endfacet
  facet normal -1.000000e+000 0.000000e+000 0.000000e+000
    outer loop
      vertex   -2.420000e+002 1.805000e+002 3.000000e+000
      vertex   -2.420000e+002 1.805000e+002 6.000000e+000
      vertex   -2.420000e+002 1.905000e+002 3.000000e+000
    endloop
  endfacet
  facet normal -1.000000e+000 0.000000e+000 0.000000e+000
    outer loop
      vertex   -2.420000e+002 1.905000e+002 3.000000e+000
      vertex   -2.420000e+002 1.805000e+002 6.000000e+000
      vertex   -2.420000e+002 1.905000e+002 6.000000e+000
    endloop
  endfacet
  facet normal -0.000000e+000 -1.000000e+000 0.000000e+000
    outer loop
      vertex   -2.320000e+002 1.805000e+002 3.000000e+000
      vertex   -2.320000e+002 1.805000e+002 6.000000e+000
      vertex   -2.420000e+002 1.805000e+002 3.000000e+000
    endloop
  endfacet
  facet normal 0.000000e+000 -1.000000e+000 0.000000e+000
    outer loop
      vertex   -2.420000e+002 1.805000e+002 3.000000e+000
      vertex   -2.320000e+002 1.805000e+002 6.000000e+000
      vertex   -2.420000e+002 1.805000e+002 6.000000e+000
    endloop
  endfacet
  facet normal 7.071068e-001 -7.071068e-001 0.000000e+000
    outer loop
      vertex   -2.420000e+002 2.295000e+002 6.000000e+000
      vertex   -2.420000e+002 2.295000e+002 3.000000e+000
      vertex   -2.320000e+002 2.395000e+002 6.000000e+000
    endloop
  endfacet
  facet normal 7.071068e-001 -7.071068e-001 0.000000e+000
    outer loop
      vertex   -2.320000e+002 2.395000e+002 6.000000e+000
      vertex   -2.420000e+002 2.295000e+002 3.000000e+000
      vertex   -2.320000e+002 2.395000e+002 3.000000e+000
    endloop
  endfacet
  facet normal 0.000000e+000 -0.000000e+000 1.000000e+000
    outer loop
      vertex   -2.420000e+002 2.295000e+002 6.000000e+000
      vertex   -2.320000e+002 2.395000e+002 6.000000e+000
      vertex   -2.420000e+002 2.395000e+002 6.000000e+000
    endloop
  endfacet
  facet normal -0.000000e+000 1.000000e+000 0.000000e+000
    outer loop
      vertex   -2.420000e+002 2.395000e+002 3.000000e+000
      vertex   -2.420000e+002 2.395000e+002 6.000000e+000
      vertex   -2.320000e+002 2.395000e+002 3.000000e+000
    endloop
  endfacet
  facet normal 0.000000e+000 1.000000e+000 -0.000000e+000
    outer loop
      vertex   -2.320000e+002 2.395000e+002 3.000000e+000
      vertex   -2.420000e+002 2.395000e+002 6.000000e+000
      vertex   -2.320000e+002 2.395000e+002 6.000000e+000
    endloop
  endfacet
  facet normal -1.000000e+000 0.000000e+000 0.000000e+000
    outer loop
      vertex   -2.420000e+002 2.295000e+002 3.000000e+000
      vertex   -2.420000e+002 2.295000e+002 6.000000e+000
      vertex   -2.420000e+002 2.395000e+002 3.000000e+000
    endloop
  endfacet
  facet normal -1.000000e+000 0.000000e+000 0.000000e+000
    outer loop
      vertex   -2.420000e+002 2.395000e+002 3.000000e+000
      vertex   -2.420000e+002 2.295000e+002 6.000000e+000
      vertex   -2.420000e+002 2.395000e+002 6.000000e+000
    endloop
  endfacet
  facet normal -7.071068e-001 7.071068e-001 0.000000e+000
    outer loop
      vertex   -8.000000e+000 1.905000e+002 6.000000e+000
      vertex   -8.000000e+000 1.905000e+002 3.000000e+000
      vertex   -1.800000e+001 1.805000e+002 6.000000e+000
    endloop
  endfacet
  facet normal -7.071068e-001 7.071068e-001 0.000000e+000
    outer loop
      vertex   -1.800000e+001 1.805000e+002 6.000000e+000
      vertex   -8.000000e+000 1.905000e+002 3.000000e+000
      vertex   -1.800000e+001 1.805000e+002 3.000000e+000
    endloop
  endfacet
  facet normal -0.000000e+000 0.000000e+000 1.000000e+000
    outer loop
      vertex   -8.000000e+000 1.905000e+002 6.000000e+000
      vertex   -1.800000e+001 1.805000e+002 6.000000e+000
      vertex   -8.000000e+000 1.805000e+002 6.000000e+000
    endloop
  endfacet
  facet normal -0.000000e+000 -1.000000e+000 0.000000e+000
    outer loop
      vertex   -8.000000e+000 1.805000e+002 3.000000e+000
      vertex   -8.000000e+000 1.805000e+002 6.000000e+000
      vertex   -1.800000e+001 1.805000e+002 3.000000e+000
    endloop
  endfacet
  facet normal 0.000000e+000 -1.000000e+000 0.000000e+000
    outer loop
      vertex   -1.800000e+001 1.805000e+002 3.000000e+000
      vertex   -8.000000e+000 1.805000e+002 6.000000e+000
      vertex   -1.800000e+001 1.805000e+002 6.000000e+000
    endloop
  endfacet
  facet normal 1.000000e+000 0.000000e+000 -0.000000e+000
    outer loop
      vertex   -8.000000e+000 1.905000e+002 3.000000e+000
      vertex   -8.000000e+000 1.905000e+002 6.000000e+000
      vertex   -8.000000e+000 1.805000e+002 3.000000e+000
    endloop
  endfacet
  facet normal 1.000000e+000 0.000000e+000 -0.000000e+000
    outer loop
      vertex   -8.000000e+000 1.805000e+002 3.000000e+000
      vertex   -8.000000e+000 1.905000e+002 6.000000e+000
      vertex   -8.000000e+000 1.805000e+002 6.000000e+000
    endloop
  endfacet
  facet normal -7.071068e-001 -7.071068e-001 -0.000000e+000
    outer loop
      vertex   -1.800000e+001 2.395000e+002 6.000000e+000
      vertex   -1.800000e+001 2.395000e+002 3.000000e+000
      vertex   -8.000000e+000 2.295000e+002 6.000000e+000
    endloop
  endfacet
  facet normal -7.071068e-001 -7.071068e-001 0.000000e+000
    outer loop
      vertex   -8.000000e+000 2.295000e+002 6.000000e+000
      vertex   -1.800000e+001 2.395000e+002 3.000000e+000
      vertex   -8.000000e+000 2.295000e+002 3.000000e+000
    endloop
  endfacet
  facet normal -0.000000e+000 0.000000e+000 1.000000e+000
    outer loop
      vertex   -1.800000e+001 2.395000e+002 6.000000e+000
      vertex   -8.000000e+000 2.295000e+002 6.000000e+000
      vertex   -8.000000e+000 2.395000e+002 6.000000e+000
    endloop
  endfacet
  facet normal -0.000000e+000 1.000000e+000 0.000000e+000
    outer loop
      vertex   -1.800000e+001 2.395000e+002 3.000000e+000
      vertex   -1.800000e+001 2.395000e+002 6.000000e+000
      vertex   -8.000000e+000 2.395000e+002 3.000000e+000
    endloop
  endfacet
  facet normal 0.000000e+000 1.000000e+000 -0.000000e+000
    outer loop
      vertex   -8.000000e+000 2.395000e+002 3.000000e+000
      vertex   -1.800000e+001 2.395000e+002 6.000000e+000
      vertex   -8.000000e+000 2.395000e+002 6.000000e+000
    endloop
  endfacet
  facet normal 1.000000e+000 0.000000e+000 -0.000000e+000
    outer loop
      vertex   -8.000000e+000 2.395000e+002 3.000000e+000
      vertex   -8.000000e+000 2.395000e+002 6.000000e+000
      vertex   -8.000000e+000 2.295000e+002 3.000000e+000
    endloop
  endfacet
  facet normal 1.000000e+000 0.000000e+000 -0.000000e+000
    outer loop
      vertex   -8.000000e+000 2.295000e+002 3.000000e+000
      vertex   -8.000000e+000 2.395000e+002 6.000000e+000
      vertex   -8.000000e+000 2.295000e+002 6.000000e+000
    endloop
  endfacet
endsolid
